<svg width="30" height="36" viewBox="0 0 30 36" fill="none" xmlns="http://www.w3.org/2000/svg">
<path d="M2.13247 11.7961C0.913915 11.7961 0 12.7772 0 13.9095V22.8976C0 24.1073 0.991933 25.0146 2.13247 25.0146C3.27301 25.0146 4.26123 24.0299 4.26123 22.8976V13.9869C4.33924 12.7772 3.35102 11.7961 2.13247 11.7961ZM27.4695 11.7961C26.2509 11.7961 25.337 12.7772 25.337 13.9095V22.8976C25.337 24.1073 26.3289 25.0146 27.4695 25.0146C28.61 25.0146 29.5982 24.0299 29.5982 22.8976V13.9869C29.5982 12.7772 28.61 11.7961 27.4695 11.7961Z" fill="#A4C639"/>
<path d="M11.1861 22.0679C9.96757 22.0679 9.05737 23.0489 9.05737 24.1812V33.1693C9.05737 34.3791 10.0456 35.2864 11.1861 35.2864C12.4047 35.2864 13.3149 34.3053 13.3149 33.1693V24.1812C13.3149 23.0489 12.4047 22.0679 11.1861 22.0679ZM18.4157 22.0679C17.1972 22.0679 16.2833 23.0489 16.2833 24.1812V33.1693C16.2833 34.3791 17.2715 35.2864 18.4157 35.2864C19.5563 35.2864 20.5445 34.3053 20.5445 33.1693V24.1812C20.5445 23.0489 19.6306 22.0679 18.4157 22.0679Z" fill="#A4C639"/>
<path d="M8.75267 0.539795C8.67465 0.539795 8.67465 0.539795 8.60035 0.617247C8.44803 0.691011 8.37001 0.842226 8.44803 0.993442L9.96751 3.71164C7.00286 5.2238 5.02271 8.09322 5.02271 11.4163H24.3487C24.3487 8.09322 22.3722 5.2238 19.4039 3.71164L20.9234 0.993442C21.0014 0.842226 20.9234 0.691011 20.7747 0.617247C20.6967 0.617247 20.6967 0.539795 20.6224 0.539795C20.5444 0.539795 20.3921 0.617247 20.3178 0.691011L18.9469 3.48666C17.6541 2.95556 16.2832 2.57937 14.7637 2.57937C13.2405 2.57937 11.8696 2.8818 10.5768 3.48666L9.05731 0.691011C8.97929 0.617247 8.90499 0.539795 8.75267 0.539795ZM5.10072 12.1724V26.1469C5.10072 27.4304 6.16324 28.4889 7.45981 28.4889H22.1419C23.4348 28.4889 24.501 27.4304 24.501 26.1469V12.1724H5.10072Z" fill="#A4C639"/>
<path d="M10.3504 6.35596C9.8934 6.35596 9.51074 6.73302 9.51074 7.18771C9.51074 7.6424 9.8934 8.02316 10.3504 8.02316C10.8073 8.02316 11.1863 7.6424 11.1863 7.18771C11.112 6.65908 10.8073 6.35596 10.3504 6.35596ZM19.2517 6.35596C18.7948 6.35596 18.4158 6.73302 18.4158 7.18771C18.4158 7.6424 18.7948 8.02316 19.2517 8.02316C19.7087 8.02316 20.0876 7.6424 20.0876 7.18771C20.0876 6.65908 19.7087 6.35596 19.2517 6.35596Z" fill="white"/>
</svg>
