<svg width="50" height="83" viewBox="0 0 50 83" fill="none" xmlns="http://www.w3.org/2000/svg">
<path d="M43.75 0H6.25C2.8038 0 0 2.79259 0 6.225V76.775C0 80.2074 2.8038 83 6.25 83H43.75C47.1962 83 50 80.2074 50 76.775V6.225C50 2.79259 47.1962 0 43.75 0ZM45.8333 76.775C45.8333 77.9191 44.8987 78.85 43.75 78.85H6.25C5.10127 78.85 4.16667 77.9191 4.16667 76.775V6.225C4.16667 5.08086 5.10127 4.15 6.25 4.15H43.75C44.8987 4.15 45.8333 5.08086 45.8333 6.225V76.775ZM29.1667 70.55C29.1667 72.842 27.3012 74.7 25 74.7C22.6988 74.7 20.8333 72.842 20.8333 70.55C20.8333 68.258 22.6988 66.4 25 66.4C27.3012 66.4 29.1667 68.258 29.1667 70.55ZM31.25 10.375C31.25 11.5209 30.3172 12.45 29.1667 12.45H20.8333C19.6828 12.45 18.75 11.5209 18.75 10.375C18.75 9.22909 19.6828 8.3 20.8333 8.3H29.1667C30.3172 8.3 31.25 9.22909 31.25 10.375Z" fill="black"/>
</svg>
