<svg width="29" height="35" viewBox="0 0 29 35" fill="none" xmlns="http://www.w3.org/2000/svg">
<mask id="mask0_162_297" style="mask-type:luminance" maskUnits="userSpaceOnUse" x="0" y="0" width="29" height="35">
<path d="M0 0.105225H28.5011V34.8517H0V0.105225Z" fill="white"/>
</mask>
<g mask="url(#mask0_162_297)">
<path d="M23.7999 18.5664C23.7597 14.1707 27.4193 12.0587 27.5842 11.9549C25.5252 8.96455 22.324 8.55732 21.1818 8.50941C18.4592 8.23393 15.8653 10.1024 14.4818 10.1024C13.0984 10.1024 10.967 8.54934 8.70682 8.59325C5.73486 8.63717 2.99614 10.306 1.46391 12.949C-1.62065 18.259 0.67568 26.1362 3.68384 30.452C5.15574 32.5601 6.90514 34.9356 9.20952 34.8477C11.4294 34.7599 12.2659 33.4224 14.9443 33.4224C17.6227 33.4224 18.3788 34.8477 20.7193 34.8038C23.1042 34.7559 24.6163 32.6479 26.0761 30.5319C27.7612 28.0845 28.4569 25.713 28.4971 25.5892C28.4448 25.5692 23.8482 23.8205 23.7999 18.5664Z" fill="black"/>
</g>
<path d="M19.3963 5.65476C20.6188 4.18553 21.4433 2.14139 21.2181 0.105225C19.4566 0.177089 17.3252 1.27103 16.0624 2.74026C14.9323 4.03781 13.939 6.11789 14.2084 8.11413C16.1669 8.26584 18.1737 7.12 19.3963 5.65476Z" fill="black"/>
</svg>
