<svg width="69" height="79" viewBox="0 0 69 79" fill="none" xmlns="http://www.w3.org/2000/svg">
<path d="M44.1362 45.6644C48.5379 43.5697 52.2259 40.0386 54.5457 35.6099C58.0552 34.6523 60.6724 31.3606 60.6724 27.5303V11.9697H52.9397C49.1328 6.58333 43.3629 3.23182 36.8793 2.51364V0H32.1207V2.51364C25.6966 3.23182 19.8672 6.58333 16.0603 11.9697H8.32759V27.5303C8.32759 31.3606 10.9448 34.5924 14.4543 35.6099C16.7741 40.0985 20.4621 43.5697 24.8638 45.6644C10.5285 49.9136 0 63.2599 0 79H4.75862C4.75862 62.4818 18.0828 49.0758 34.5 49.0758C50.9172 49.0758 64.2414 62.4818 64.2414 79H69C69 63.2599 58.4715 49.9136 44.1362 45.6644ZM46.6345 11.9697H36.8793V7.36136C40.5672 7.84015 43.9578 9.45606 46.6345 11.9697ZM32.1207 7.36136V11.9697H22.3655C25.0422 9.45606 28.4328 7.84015 32.1207 7.36136ZM13.0862 16.7576H55.9138V27.5303C55.9138 29.5053 54.3078 31.1212 52.3448 31.1212H16.6552C14.6922 31.1212 13.0862 29.5053 13.0862 27.5303V16.7576ZM20.2241 35.9091H48.7759C45.4448 40.3379 40.1509 43.0909 34.5 43.0909C28.8491 43.0909 23.5552 40.3379 20.2241 35.9091Z" fill="black"/>
</svg>
