<svg width="36" height="41" viewBox="0 0 36 41" fill="none" xmlns="http://www.w3.org/2000/svg">
<mask id="mask0_162_320" style="mask-type:luminance" maskUnits="userSpaceOnUse" x="0" y="0" width="36" height="41">
<path d="M33.9918 9.4687L19.3416 1.05275C18.5185 0.562496 17.1193 0.562496 16.2963 1.05275L1.56379 9.4687C0.740741 9.95895 0 11.1846 0 12.0834V28.9153C0.0823045 30.0592 0.658436 30.958 1.56379 31.53L16.214 40.0276C17.037 40.5179 18.4362 40.5179 19.2593 40.0276L33.9095 31.6117C34.8971 30.958 35.391 30.0592 35.4733 28.997V12.0834C35.5556 11.1029 34.8971 10.0407 33.9918 9.4687Z" fill="white"/>
</mask>
<g mask="url(#mask0_162_320)">
<path d="M38.3541 10.2856H17.4487V31.4481H38.3541V10.2856Z" fill="url(#paint0_linear_162_320)"/>
<path d="M38.2717 32.2651L11.4404 16.8223H-2.30444V42.397H38.2717V32.2651Z" fill="url(#paint1_linear_162_320)"/>
<path d="M-2.30444 32.1019L38.2717 8.73329V-0.499756H-2.30444V32.1019Z" fill="url(#paint2_linear_162_320)"/>
</g>
<path d="M5.67903 20.5811C5.59672 8.73338 21.5638 3.58575 28.3951 14.5347L23.1276 17.5579C19.9177 12.3285 12.0165 14.2078 11.7696 20.5811C11.8519 26.4641 19.5885 29.1605 23.1276 23.6043L28.3951 26.6275C22.3868 37.0862 6.00825 33.3276 5.67903 20.5811Z" fill="white"/>
<path d="M25.7613 17.1494H26.749L26.0906 23.7678H25.1029L25.7613 17.1494Z" fill="white"/>
<path d="M27.9012 17.1494H28.8889L28.2304 23.7678H27.2428L27.9012 17.1494Z" fill="white"/>
<path d="M29.6297 18.7019H24.6091V19.6847H29.6297V18.7019Z" fill="white"/>
<path d="M29.3826 21.0713H24.3621V22.054H29.3826V21.0713Z" fill="white"/>
<defs>
<linearGradient id="paint0_linear_162_320" x1="24.5581" y1="16.7351" x2="34.5631" y2="29.6344" gradientUnits="userSpaceOnUse">
<stop stop-color="#3B009B"/>
<stop offset="1" stop-color="#390086"/>
</linearGradient>
<linearGradient id="paint1_linear_162_320" x1="9.02712" y1="25.9504" x2="19.6639" y2="39.6642" gradientUnits="userSpaceOnUse">
<stop stop-color="#340084"/>
<stop offset="1" stop-color="#290064"/>
</linearGradient>
<linearGradient id="paint2_linear_162_320" x1="9.48055" y1="4.9917" x2="20.3669" y2="19.0273" gradientUnits="userSpaceOnUse">
<stop stop-color="#A47EDE"/>
<stop offset="1" stop-color="#9866D3"/>
</linearGradient>
</defs>
</svg>
