<svg width="218" height="237" viewBox="0 0 218 237" fill="none" xmlns="http://www.w3.org/2000/svg">
<rect width="218" height="237" rx="44" fill="#D9D9D9"/>
<g clip-path="url(#clip0_437_3169)">
<path d="M139 52H79C73.4861 52 69 56.4749 69 61.975V175.025C69 180.525 73.4861 185 79 185H139C144.514 185 149 180.525 149 175.025V61.975C149 56.4749 144.514 52 139 52ZM142.333 175.025C142.333 176.858 140.838 178.35 139 178.35H79C77.162 178.35 75.6667 176.858 75.6667 175.025V61.975C75.6667 60.1416 77.162 58.65 79 58.65H139C140.838 58.65 142.333 60.1416 142.333 61.975V175.025ZM115.667 165.05C115.667 168.723 112.682 171.7 109 171.7C105.318 171.7 102.333 168.723 102.333 165.05C102.333 161.377 105.318 158.4 109 158.4C112.682 158.4 115.667 161.377 115.667 165.05ZM119 68.625C119 70.4612 117.508 71.95 115.667 71.95H102.333C100.492 71.95 99 70.4612 99 68.625C99 66.7888 100.492 65.3 102.333 65.3H115.667C117.508 65.3 119 66.7888 119 68.625Z" fill="black"/>
</g>
<defs>
<clipPath id="clip0_437_3169">
<rect width="80" height="133" fill="white" transform="translate(69 52)"/>
</clipPath>
</defs>
</svg>
