<svg width="80" height="80" viewBox="0 0 80 80" fill="none" xmlns="http://www.w3.org/2000/svg">
<g clip-path="url(#clip0_143_360)">
<path d="M0 0H80V80H0V0Z" fill="#F7DF1E"/>
<path d="M20.96 66.88L27.04 63.2C28.16 65.28 29.28 67.0401 31.84 67.0401C34.24 67.0401 35.84 66.0801 35.84 62.2401V36.8H43.36V62.4C43.36 70.2401 38.72 73.76 32.16 73.76C26.24 73.76 22.88 70.56 20.96 66.88Z" fill="black"/>
<path d="M47.6799 66.0801L53.7599 62.5601C55.3599 65.1201 57.4399 67.2001 61.1199 67.2001C64.1599 67.2001 66.2399 65.6001 66.2399 63.5201C66.2399 60.9601 64.1599 60.0001 60.7999 58.5601L58.8799 57.6001C53.4399 55.3601 49.9199 52.3201 49.9199 46.2401C49.9199 40.6401 54.2399 36.3201 60.9599 36.3201C65.7599 36.3201 69.1199 37.9201 71.6799 42.4001L65.7599 46.0801C64.4799 43.8401 63.0399 42.8801 60.9599 42.8801C58.7199 42.8801 57.4399 44.3201 57.4399 46.0801C57.4399 48.3201 58.8799 49.2801 62.0799 50.7201L63.9999 51.5201C70.3999 54.2401 73.9199 57.1201 73.9199 63.3601C73.9199 70.0801 68.6399 73.7601 61.4399 73.7601C54.3999 73.7601 49.7599 70.4001 47.6799 66.0801Z" fill="black"/>
</g>
<defs>
<clipPath id="clip0_143_360">
<rect width="80" height="80" fill="white"/>
</clipPath>
</defs>
</svg>
