<svg width="40" height="35" viewBox="0 0 40 35" fill="none" xmlns="http://www.w3.org/2000/svg">
<path d="M39.2159 17.6091C39.2159 15.0031 35.9545 12.555 30.9432 11.0546C32.0568 6.00059 31.5795 1.97316 29.3523 0.709655C28.7955 0.393778 28.2386 0.23584 27.5227 0.23584V1.97316C27.9205 1.97316 28.1591 2.05213 28.3977 2.21007C29.5114 2.84183 29.9886 5.2109 29.5909 8.21173C29.5114 8.92246 29.3523 9.71215 29.1932 10.5808C27.6023 10.186 25.9318 9.87009 24.1023 9.71215C22.9886 8.21173 21.875 6.86926 20.7614 5.76369C23.3864 3.39461 25.8523 2.05213 27.5227 2.05213V0.23584C25.2955 0.23584 22.4318 1.81522 19.4886 4.50018C16.625 1.81522 13.7614 0.23584 11.5341 0.23584V1.97316C13.2045 1.97316 15.6705 3.31564 18.2955 5.68472C17.1818 6.86926 16.0682 8.21173 14.9545 9.63318C13.125 9.79112 11.4545 10.107 9.86364 10.5018C9.70455 9.71215 9.54545 8.92246 9.46591 8.21173C9.06818 5.2109 9.54545 2.84183 10.6591 2.21007C10.8977 2.05213 11.2159 1.97316 11.6136 1.97316V0.23584C10.9773 0.23584 10.3409 0.393778 9.78409 0.709655C7.55682 1.97316 7 6.00059 8.19318 11.0546C3.18182 12.555 0 15.0031 0 17.6091C0 20.2151 3.26136 22.6631 8.27273 24.1635C7.15909 29.2176 7.63636 33.245 9.86364 34.5085C10.4205 34.8244 10.9773 34.9823 11.6932 34.9823C13.9205 34.9823 16.7841 33.4029 19.7273 30.718C22.6705 33.4029 25.5341 34.9823 27.7614 34.9823C28.3977 34.9823 29.0341 34.8244 29.5909 34.5085C31.8182 33.245 32.375 29.2176 31.1818 24.1635C35.9545 22.5841 39.2159 20.1361 39.2159 17.6091ZM28.7955 12.3181C28.4773 13.3447 28.1591 14.3713 27.6818 15.4769C27.3636 14.8452 27.0455 14.2134 26.6477 13.5816C26.25 12.9499 25.8523 12.3181 25.5341 11.6864C26.6477 11.8443 27.7614 12.0023 28.7955 12.3181ZM25.1364 20.7678C24.5 21.8734 23.8636 22.821 23.2273 23.7687C22.0341 23.8476 20.8409 23.9266 19.6477 23.9266C18.4545 23.9266 17.2614 23.8476 16.0682 23.7687C15.4318 22.821 14.7159 21.7944 14.1591 20.7678C13.5227 19.7412 12.9659 18.6357 12.4886 17.6091C12.9659 16.5825 13.5227 15.4769 14.1591 14.4503C14.7955 13.3447 15.4318 12.3971 16.0682 11.4495C17.2614 11.3705 18.4545 11.2915 19.6477 11.2915C20.8409 11.2915 22.0341 11.3705 23.2273 11.4495C23.8636 12.3971 24.5795 13.4237 25.1364 14.4503C25.7727 15.4769 26.3295 16.5825 26.8068 17.6091C26.25 18.6357 25.6932 19.7412 25.1364 20.7678ZM27.6818 19.7412C28.0795 20.7678 28.4773 21.8734 28.7955 22.9C27.7614 23.1369 26.6477 23.3738 25.5341 23.5318C25.9318 22.9 26.3295 22.2683 26.6477 21.6365C27.0455 21.0048 27.3636 20.373 27.6818 19.7412ZM19.5682 28.191C18.8523 27.4013 18.0568 26.6116 17.3409 25.6639C18.0568 25.6639 18.7727 25.7429 19.5682 25.7429C20.2841 25.7429 21.0795 25.7429 21.7955 25.6639C21.0795 26.6116 20.2841 27.4013 19.5682 28.191ZM13.6023 23.5318C12.4886 23.3738 11.375 23.1369 10.3409 22.9C10.6591 21.8734 10.9773 20.8468 11.4545 19.7412C11.7727 20.373 12.0909 21.0048 12.4886 21.6365C12.8864 22.2683 13.2045 22.9 13.6023 23.5318ZM19.5682 6.94823C20.2841 7.73792 21.0795 8.52761 21.7955 9.47524C21.0795 9.47524 20.2841 9.47524 19.5682 9.47524C18.8523 9.47524 18.0568 9.47524 17.3409 9.55421C18.0568 8.60658 18.7727 7.73792 19.5682 6.94823ZM13.6023 11.6864C13.2045 12.3181 12.8068 12.9499 12.4886 13.5816C12.0909 14.2134 11.7727 14.8452 11.4545 15.4769C11.0568 14.4503 10.6591 13.3447 10.3409 12.3181C11.375 12.0812 12.4886 11.8443 13.6023 11.6864ZM6.36364 21.6365C3.5 20.452 1.67045 18.8726 1.67045 17.6091C1.67045 16.3456 3.5 14.7662 6.36364 13.5816C7.07955 13.2658 7.79545 13.0289 8.59091 12.792C9.06818 14.3713 9.625 15.9507 10.4205 17.6091C9.70455 19.2674 9.06818 20.8468 8.67045 22.4262C7.79545 22.1893 7.07955 21.8734 6.36364 21.6365ZM10.6591 32.9291C9.54545 32.2974 9.06818 29.9283 9.46591 26.9274C9.54545 26.2167 9.70455 25.427 9.86364 24.5584C11.4545 24.9532 13.125 25.2691 14.9545 25.427C16.0682 26.9274 17.1818 28.2699 18.2955 29.3755C15.6705 31.7446 13.2045 33.087 11.5341 33.087C11.2159 33.166 10.8977 33.087 10.6591 32.9291ZM29.6705 26.9274C30.0682 29.9283 29.5909 32.2974 28.4773 32.9291C28.2386 33.087 27.9205 33.166 27.6023 33.166C25.9318 33.166 23.4659 31.8235 20.8409 29.4545C21.9545 28.2699 23.0682 26.9274 24.1818 25.506C26.0114 25.3481 27.6818 25.0322 29.2727 24.6373C29.4318 25.427 29.5909 26.1378 29.6705 26.9274ZM32.7727 21.6365C32.0568 21.9524 31.3409 22.1893 30.5455 22.4262C30.0682 20.8468 29.5114 19.2674 28.7159 17.6091C29.4318 15.9507 30.0682 14.3713 30.4659 12.792C31.2614 13.0289 31.9773 13.3447 32.6932 13.5816C35.5568 14.7662 37.3864 16.3456 37.3864 17.6091C37.3864 18.8726 35.5568 20.452 32.7727 21.6365Z" fill="#61DAFB"/>
<path d="M19.5683 21.2417C21.5891 21.2417 23.2274 19.6154 23.2274 17.6091C23.2274 15.6029 21.5891 13.9766 19.5683 13.9766C17.5474 13.9766 15.9092 15.6029 15.9092 17.6091C15.9092 19.6154 17.5474 21.2417 19.5683 21.2417Z" fill="#61DAFB"/>
</svg>
