<svg width="92" height="74" viewBox="0 0 92 74" fill="none" xmlns="http://www.w3.org/2000/svg">
<path d="M0 0V74H92V0H0ZM87.4 4.625V18.5H4.6V4.625H87.4ZM4.6 69.375V23.125H87.4V69.375H4.6ZM82.8 13.875H78.2V9.25H82.8V13.875ZM73.6 13.875H69V9.25H73.6V13.875ZM30.6727 39.3125H35.0913L31.1471 52.4383H26.7291L24.9316 45.4362L23.1095 52.4383H18.6162L14.8725 39.3125H19.6898L21.3373 46.7161L23.3094 39.3125H27.0536L28.7758 46.7161L30.6727 39.3125ZM51.691 39.3125H56.1091L52.165 52.4383H47.7469L45.95 45.4362L44.1279 52.4383H39.6346L35.8903 39.3125H40.7076L42.3552 46.7161L44.3272 39.3125H48.0715L49.7937 46.7161L51.691 39.3125ZM72.7089 39.3125H77.1275L73.1833 52.4383H68.7653L66.9678 45.4362L65.1457 52.4383H60.6524L56.9087 39.3125H61.726L63.3735 46.7161L65.3456 39.3125H69.0898L70.812 46.7161L72.7089 39.3125Z" fill="black"/>
</svg>
