<svg width="89" height="88" viewBox="0 0 89 88" fill="none" xmlns="http://www.w3.org/2000/svg">
<path d="M39.0021 15.2958C40.5027 16.1928 45.3509 15.2958 47.0823 15.2958C48.8138 15.2958 52.1614 55.8084 52.1614 55.8084H36.2317C36.2317 55.8084 37.5015 14.3989 39.0021 15.2958Z" fill="#835931"/>
<path d="M39.0021 15.2958C40.5027 16.1928 45.3509 15.2958 47.0823 15.2958C48.8138 15.2958 52.1614 55.8084 52.1614 55.8084H36.2317C36.2317 55.8084 37.5015 14.3989 39.0021 15.2958Z" fill="#835931"/>
<path d="M37.0397 26.0595H50.5453V28.1524H37.0397V26.0595Z" fill="#8D6B45"/>
<path d="M34.5002 36.9724H52.1613V39.0653H34.5002V36.9724Z" fill="#8E6A46"/>
<path d="M34.5002 47.8853H53.3157V49.9782H34.5002V47.8853Z" fill="#8D6B48"/>
<path d="M86.384 60.3619H0C0 60.3619 6.48356 58.6427 18.3065 50.8109C30.1295 42.9792 35.6596 43.9342 35.6596 43.9342L55.1103 52.9121C62.2186 47.8652 65.5984 46.0354 69.603 46.0355C73.6075 46.0355 86.384 60.3619 86.384 60.3619Z" fill="#B69E86"/>
<path d="M28.4983 1.62369C35.3633 1.87973 35.6493 3.15184 38.4144 5.06203C41.1794 6.97222 42.991 10.315 42.991 10.315C42.991 10.315 46.0422 3.72485 51.3815 1.14611C56.7209 -1.43263 65.4928 1.14611 65.4928 1.14611L57.4837 4.58444C57.4837 4.58444 61.4883 6.11259 58.2465 6.11259C55.0047 6.11259 51.9536 10.315 51.9536 10.315C51.9536 10.315 59.0093 11.5566 62.251 13.1803C65.4928 14.804 67.3997 20.057 67.3997 20.057C67.3997 20.057 64.3486 19.2929 63.2998 19.2929C62.251 19.2929 60.5348 18.3378 57.4837 17.5737C54.4326 16.8096 51.3815 17.5737 51.3815 17.5737C51.3815 17.5737 57.4837 21.012 57.4837 24.8324C57.4837 28.6528 54.4326 35.5295 54.4326 35.5295L52.9071 30.0855C52.9071 30.0855 51.9536 27.3157 50.9048 24.8324C49.8559 22.3492 42.991 16.8096 42.991 16.8096L33.361 27.3157L30.7867 35.5295C30.7867 35.5295 28.4983 28.3663 29.6425 24.8324C30.7867 21.2986 35.3633 16.8096 35.3633 16.8096C35.3633 16.8096 28.4983 18.8153 24.4938 22.7312C20.4893 26.6471 24.4938 20.057 24.4938 20.057L19.5358 22.7312C19.5358 22.7312 15.3405 26.9336 18.5823 20.057C21.8241 13.1803 35.3633 10.315 35.3633 10.315L28.4983 7.16324L20.966 4.58444L18.5823 3.91592C18.5823 3.91592 24.5269 1.47558 28.4983 1.62369Z" fill="#9BC734"/>
<path d="M9.98092 73.6093H12.9759V82.8243C12.9759 83.859 12.7292 84.7643 12.2358 85.5404C11.747 86.3164 11.0622 86.9214 10.1815 87.3556C9.30077 87.7852 8.27478 88 7.10354 88C5.92769 88 4.89939 87.7852 4.01865 87.3556C3.13792 86.9214 2.45316 86.3164 1.96437 85.5404C1.47558 84.7643 1.23119 83.859 1.23119 82.8243V73.6093H4.22616V82.568C4.22616 83.1084 4.34374 83.5888 4.57891 84.0091C4.8187 84.4295 5.15531 84.7597 5.58876 84.9999C6.02222 85.2401 6.52714 85.3602 7.10354 85.3602C7.68455 85.3602 8.18948 85.2401 8.61832 84.9999C9.05177 84.7597 9.38608 84.4295 9.62125 84.0091C9.86103 83.5888 9.98092 83.1084 9.98092 82.568V73.6093Z" fill="url(#paint0_linear_48_127)"/>
<path d="M15.44 87.7991V73.6093H21.0288C22.0986 73.6093 23.0116 73.801 23.7678 74.1844C24.5287 74.5631 25.1074 75.1013 25.5039 75.7987C25.9051 76.4916 26.1057 77.3069 26.1057 78.2445C26.1057 79.1868 25.9028 79.9975 25.497 80.6765C25.0912 81.3509 24.5033 81.8682 23.7332 82.2285C22.9678 82.5888 22.0409 82.7689 20.9527 82.7689H17.2107V80.3578H20.4685C21.0403 80.3578 21.5152 80.2792 21.8934 80.1222C22.2715 79.9651 22.5528 79.7296 22.7372 79.4155C22.9263 79.1014 23.0208 78.7111 23.0208 78.2445C23.0208 77.7734 22.9263 77.3762 22.7372 77.0528C22.5528 76.7295 22.2692 76.4847 21.8864 76.3184C21.5083 76.1475 21.0311 76.062 20.4547 76.062H18.435V87.7991H15.44ZM23.09 81.3416L26.6106 87.7991H23.3044L19.8598 81.3416H23.09Z" fill="url(#paint1_linear_48_127)"/>
<path d="M32.7302 73.6093H36.4238L40.3249 83.1431H40.4909L44.3919 73.6093H48.0855V87.7991H45.1804V78.5633H45.0629L41.397 87.7298H39.4188L35.7529 78.5286H35.6353V87.7991H32.7302V73.6093Z" fill="url(#paint2_linear_48_127)"/>
<path d="M52.9947 87.7991H49.7853L54.6755 73.6093H58.535L63.4183 87.7991H60.2089L56.6606 76.8519H56.5499L52.9947 87.7991ZM52.7941 82.2216H60.3749V84.5634H52.7941V82.2216Z" fill="url(#paint3_linear_48_127)"/>
<path d="M65.1233 87.7991V73.6093H70.712C71.7818 73.6093 72.6948 73.801 73.4511 74.1844C74.2119 74.5631 74.7906 75.1013 75.1872 75.7987C75.5883 76.4916 75.7889 77.3069 75.7889 78.2445C75.7889 79.1868 75.586 79.9975 75.1803 80.6765C74.7745 81.3509 74.1865 81.8682 73.4165 82.2285C72.651 82.5888 71.7242 82.7689 70.6359 82.7689H66.894V80.3578H70.1518C70.7235 80.3578 71.1985 80.2792 71.5766 80.1222C71.9547 79.9651 72.236 79.7296 72.4205 79.4155C72.6095 79.1014 72.704 78.7111 72.704 78.2445C72.704 77.7734 72.6095 77.3762 72.4205 77.0528C72.236 76.7295 71.9524 76.4847 71.5697 76.3184C71.1916 76.1475 70.7143 76.062 70.1379 76.062H68.1182V87.7991H65.1233ZM72.7732 81.3416L76.2939 87.7991H72.9876L69.5431 81.3416H72.7732Z" fill="url(#paint4_linear_48_127)"/>
<path d="M77.366 76.0828V73.6093H89V76.0828H84.6632V87.7991H81.7028V76.0828H77.366Z" fill="url(#paint5_linear_48_127)"/>
<defs>
<linearGradient id="paint0_linear_48_127" x1="1.23117" y1="80.8047" x2="89" y2="80.8047" gradientUnits="userSpaceOnUse">
<stop stop-color="#835931"/>
<stop offset="1" stop-color="#B69E86"/>
</linearGradient>
<linearGradient id="paint1_linear_48_127" x1="1.23117" y1="80.8047" x2="89" y2="80.8047" gradientUnits="userSpaceOnUse">
<stop stop-color="#835931"/>
<stop offset="1" stop-color="#B69E86"/>
</linearGradient>
<linearGradient id="paint2_linear_48_127" x1="1.23117" y1="80.8047" x2="89" y2="80.8047" gradientUnits="userSpaceOnUse">
<stop stop-color="#835931"/>
<stop offset="1" stop-color="#B69E86"/>
</linearGradient>
<linearGradient id="paint3_linear_48_127" x1="1.23117" y1="80.8047" x2="89" y2="80.8047" gradientUnits="userSpaceOnUse">
<stop stop-color="#835931"/>
<stop offset="1" stop-color="#B69E86"/>
</linearGradient>
<linearGradient id="paint4_linear_48_127" x1="1.23117" y1="80.8047" x2="89" y2="80.8047" gradientUnits="userSpaceOnUse">
<stop stop-color="#835931"/>
<stop offset="1" stop-color="#B69E86"/>
</linearGradient>
<linearGradient id="paint5_linear_48_127" x1="1.23117" y1="80.8047" x2="89" y2="80.8047" gradientUnits="userSpaceOnUse">
<stop stop-color="#835931"/>
<stop offset="1" stop-color="#B69E86"/>
</linearGradient>
</defs>
</svg>
