<svg width="84" height="82" viewBox="0 0 84 82" fill="none" xmlns="http://www.w3.org/2000/svg">
<g filter="url(#filter0_d_46_106)">
<path d="M21.2967 65.765C21.2296 65.1696 20.9528 64.7084 20.4664 64.3813C19.98 64.0501 19.3678 63.8844 18.6298 63.8844C18.1015 63.8844 17.6444 63.9683 17.2587 64.136C16.8729 64.2995 16.5731 64.526 16.3592 64.8153C16.1496 65.1004 16.0448 65.4254 16.0448 65.7902C16.0448 66.0963 16.116 66.3605 16.2586 66.5827C16.4054 66.8049 16.5962 66.9915 16.831 67.1425C17.07 67.2893 17.3258 67.4129 17.5983 67.5136C17.8709 67.61 18.1329 67.6897 18.3845 67.7526L19.6425 68.0797C20.0534 68.1803 20.4748 68.3166 20.9067 68.4885C21.3386 68.6604 21.739 68.8868 22.108 69.1678C22.477 69.4487 22.7747 69.7967 23.0012 70.2119C23.2318 70.627 23.3471 71.1239 23.3471 71.7025C23.3471 72.4321 23.1584 73.08 22.781 73.646C22.4078 74.2121 21.8648 74.6587 21.152 74.9857C20.4434 75.3128 19.5859 75.4763 18.5795 75.4763C17.6151 75.4763 16.7807 75.3233 16.0762 75.0172C15.3718 74.7111 14.8204 74.2771 14.422 73.7152C14.0237 73.1492 13.8035 72.4783 13.7616 71.7025H15.7114C15.7491 72.168 15.9001 72.5558 16.1643 72.8661C16.4326 73.1722 16.7744 73.4007 17.1895 73.5517C17.6088 73.6985 18.0679 73.7718 18.5669 73.7718C19.1162 73.7718 19.6047 73.6859 20.0324 73.514C20.4643 73.3378 20.804 73.0946 21.0514 72.7844C21.2988 72.4699 21.4224 72.103 21.4224 71.6837C21.4224 71.3021 21.3134 70.9897 21.0954 70.7465C20.8815 70.5033 20.5901 70.302 20.2211 70.1427C19.8563 69.9833 19.4433 69.8429 18.982 69.7213L17.4599 69.3061C16.4284 69.0252 15.6108 68.6122 15.007 68.0671C14.4073 67.522 14.1075 66.8008 14.1075 65.9034C14.1075 65.1612 14.3088 64.5134 14.7113 63.9599C15.1139 63.4064 15.659 62.9766 16.3467 62.6705C17.0343 62.3602 17.8101 62.2051 18.6739 62.2051C19.546 62.2051 20.3155 62.3581 20.9822 62.6642C21.6531 62.9703 22.1814 63.3917 22.5672 63.9285C22.9529 64.461 23.1542 65.0732 23.171 65.765H21.2967Z" fill="#63755F"/>
<path d="M25.6696 75.2625V62.3812H30.261C31.2632 62.3812 32.0934 62.5636 32.7518 62.9284C33.4101 63.2932 33.9028 63.7922 34.2298 64.4253C34.5569 65.0543 34.7204 65.763 34.7204 66.5513C34.7204 67.3438 34.5548 68.0566 34.2236 68.6898C33.8965 69.3187 33.4017 69.8177 32.7392 70.1867C32.0809 70.5515 31.2527 70.7339 30.2548 70.7339H27.0973V69.086H30.0786C30.7118 69.086 31.2255 68.977 31.6196 68.7589C32.0138 68.5367 32.3031 68.2348 32.4876 67.8532C32.6721 67.4717 32.7643 67.0377 32.7643 66.5513C32.7643 66.0649 32.6721 65.633 32.4876 65.2556C32.3031 64.8782 32.0117 64.5826 31.6133 64.3687C31.2192 64.1549 30.6992 64.048 30.0535 64.048H27.6131V75.2625H25.6696Z" fill="#63755F"/>
<path d="M36.7206 75.2625H34.6575L39.2931 62.3812H41.5385L46.174 75.2625H44.111L40.4692 64.721H40.3686L36.7206 75.2625ZM37.0665 70.2182H43.7587V71.8535H37.0665V70.2182Z" fill="#63755F"/>
<path d="M58.1276 66.5701H56.1652C56.0897 66.1508 55.9492 65.7818 55.7438 65.4631C55.5383 65.1445 55.2867 64.874 54.989 64.6518C54.6913 64.4295 54.3579 64.2618 53.9889 64.1486C53.6241 64.0354 53.2363 63.9788 52.8253 63.9788C52.0832 63.9788 51.4185 64.1654 50.8315 64.5386C50.2487 64.9117 49.7874 65.4589 49.4478 66.1802C49.1123 66.9014 48.9446 67.7819 48.9446 68.8218C48.9446 69.8701 49.1123 70.7549 49.4478 71.4761C49.7874 72.1973 50.2508 72.7424 50.8378 73.1114C51.4248 73.4804 52.0853 73.6649 52.8191 73.6649C53.2258 73.6649 53.6116 73.6104 53.9764 73.5014C54.3454 73.3882 54.6787 73.2225 54.9764 73.0045C55.2741 72.7864 55.5257 72.5202 55.7312 72.2057C55.9408 71.887 56.0855 71.5222 56.1652 71.1113L58.1276 71.1176C58.0227 71.7507 57.8194 72.3336 57.5175 72.8661C57.2197 73.3945 56.8361 73.8515 56.3664 74.2373C55.901 74.6188 55.3685 74.9145 54.7689 75.1241C54.1692 75.3338 53.5151 75.4386 52.8065 75.4386C51.6911 75.4386 50.6973 75.1744 49.8252 74.6461C48.953 74.1136 48.2653 73.3525 47.7621 72.3629C47.2632 71.3734 47.0137 70.193 47.0137 68.8218C47.0137 67.4465 47.2652 66.2661 47.7684 65.2807C48.2716 64.2912 48.9593 63.5322 49.8314 63.0039C50.7036 62.4713 51.6953 62.2051 52.8065 62.2051C53.49 62.2051 54.1273 62.3036 54.7185 62.5007C55.314 62.6936 55.8486 62.9787 56.3224 63.3561C56.7962 63.7293 57.1883 64.1863 57.4986 64.7272C57.8089 65.264 58.0185 65.8783 58.1276 66.5701Z" fill="#63755F"/>
<path d="M60.4532 75.2625V62.3812H68.5291V64.0542H62.3967V67.979H68.1077V69.6458H62.3967V73.5894H68.6046V75.2625H60.4532Z" fill="#63755F"/>
<path d="M70.7919 75.2625V73.9668L77.5659 64.0542H70.7353V62.3812H79.9434V63.6769L73.1694 73.5894H80V75.2625H70.7919Z" fill="#63755F"/>
<path d="M9.43443 59.5632H8.22681L29.1589 14.2773H36.4047L19.9005 48.8958L17.0827 42.6565L9.43443 59.5632Z" fill="#DFDDD0"/>
<path d="M10.8432 14.0762H4L15.0699 38.4299L31.7753 2H30.9702L18.2902 29.7753L10.8432 14.0762Z" fill="#63755F"/>
</g>
<defs>
<filter id="filter0_d_46_106" x="0" y="0" width="84" height="81.4763" filterUnits="userSpaceOnUse" color-interpolation-filters="sRGB">
<feFlood flood-opacity="0" result="BackgroundImageFix"/>
<feColorMatrix in="SourceAlpha" type="matrix" values="0 0 0 0 0 0 0 0 0 0 0 0 0 0 0 0 0 0 127 0" result="hardAlpha"/>
<feOffset dy="2"/>
<feGaussianBlur stdDeviation="2"/>
<feComposite in2="hardAlpha" operator="out"/>
<feColorMatrix type="matrix" values="0 0 0 0 0 0 0 0 0 0 0 0 0 0 0 0 0 0 0.25 0"/>
<feBlend mode="normal" in2="BackgroundImageFix" result="effect1_dropShadow_46_106"/>
<feBlend mode="normal" in="SourceGraphic" in2="effect1_dropShadow_46_106" result="shape"/>
</filter>
</defs>
</svg>
