<svg width="123" height="120" viewBox="0 0 123 120" fill="none" xmlns="http://www.w3.org/2000/svg">
<g filter="url(#filter0_d_46_106)">
<path d="M30.1726 98.4864C30.0711 97.5854 29.6523 96.8875 28.9163 96.3926C28.1803 95.8914 27.254 95.6407 26.1373 95.6407C25.3378 95.6407 24.6462 95.7676 24.0625 96.0214C23.4788 96.2689 23.0251 96.6115 22.7015 97.0493C22.3843 97.4807 22.2257 97.9725 22.2257 98.5245C22.2257 98.9877 22.3335 99.3874 22.5492 99.7237C22.7713 100.06 23.06 100.342 23.4153 100.571C23.777 100.793 24.164 100.98 24.5764 101.132C24.9888 101.278 25.3854 101.399 25.7661 101.494L27.6696 101.989C28.2914 102.141 28.929 102.347 29.5825 102.607C30.2361 102.868 30.842 103.21 31.4003 103.635C31.9587 104.06 32.4092 104.587 32.7518 105.215C33.1008 105.843 33.2753 106.595 33.2753 107.471C33.2753 108.575 32.9897 109.555 32.4187 110.412C31.854 111.268 31.0323 111.944 29.9537 112.439C28.8814 112.934 27.5839 113.181 26.0611 113.181C24.6018 113.181 23.3392 112.95 22.2732 112.486C21.2073 112.023 20.373 111.366 19.7702 110.516C19.1674 109.66 18.8343 108.645 18.7709 107.471H21.7212C21.7783 108.175 22.0068 108.762 22.4065 109.231C22.8126 109.695 23.3297 110.04 23.9578 110.269C24.5923 110.491 25.2871 110.602 26.0421 110.602C26.8733 110.602 27.6125 110.472 28.2596 110.212C28.9132 109.945 29.4271 109.577 29.8014 109.108C30.1758 108.632 30.363 108.077 30.363 107.442C30.363 106.865 30.198 106.392 29.8681 106.024C29.5445 105.656 29.1035 105.352 28.5451 105.11C27.9931 104.869 27.3682 104.657 26.6702 104.473L24.3671 103.845C22.8062 103.42 21.569 102.795 20.6553 101.97C19.748 101.145 19.2943 100.054 19.2943 98.6958C19.2943 97.5727 19.5989 96.5925 20.208 95.7549C20.8171 94.9174 21.6419 94.2671 22.6825 93.8039C23.723 93.3344 24.8968 93.0996 26.2039 93.0996C27.5236 93.0996 28.6879 93.3312 29.6967 93.7944C30.7119 94.2575 31.5114 94.8952 32.0951 95.7074C32.6788 96.5132 32.9834 97.4395 33.0088 98.4864H30.1726Z" fill="#63755F"/>
<path d="M36.7895 112.858V93.3661H43.7372C45.2536 93.3661 46.5099 93.6421 47.506 94.1941C48.5021 94.7461 49.2477 95.5011 49.7426 96.4592C50.2375 97.411 50.4849 98.4832 50.4849 99.6761C50.4849 100.875 50.2343 101.954 49.7331 102.912C49.2382 103.864 48.4895 104.619 47.487 105.177C46.4908 105.729 45.2377 106.005 43.7276 106.005H38.9499V103.512H43.4611C44.4192 103.512 45.1965 103.347 45.7929 103.017C46.3893 102.68 46.8271 102.224 47.1063 101.646C47.3855 101.069 47.525 100.412 47.525 99.6761C47.525 98.9401 47.3855 98.2865 47.1063 97.7155C46.8271 97.1445 46.3861 96.6972 45.7834 96.3736C45.187 96.05 44.4002 95.8882 43.4231 95.8882H39.7304V112.858H36.7895Z" fill="#63755F"/>
<path d="M53.5114 112.858H50.3897L57.404 93.3661H60.8017L67.8159 112.858H64.6943L59.1837 96.9065H59.0315L53.5114 112.858ZM54.0349 105.225H64.1613V107.699H54.0349V105.225Z" fill="#63755F"/>
<path d="M85.9036 99.7046H82.9342C82.82 99.0701 82.6074 98.5118 82.2965 98.0296C81.9856 97.5474 81.6049 97.1381 81.1544 96.8018C80.704 96.4656 80.1995 96.2118 79.6412 96.0405C79.0892 95.8691 78.5023 95.7835 77.8805 95.7835C76.7574 95.7835 75.7518 96.0658 74.8635 96.6305C73.9816 97.1952 73.2836 98.0232 72.7697 99.1145C72.2621 100.206 72.0083 101.538 72.0083 103.112C72.0083 104.698 72.2621 106.037 72.7697 107.128C73.2836 108.219 73.9847 109.044 74.873 109.603C75.7613 110.161 76.7606 110.44 77.871 110.44C78.4864 110.44 79.0702 110.358 79.6222 110.193C80.1805 110.021 80.6849 109.771 81.1354 109.441C81.5859 109.111 81.9666 108.708 82.2775 108.232C82.5947 107.75 82.8136 107.198 82.9342 106.576L85.9036 106.586C85.745 107.544 85.4372 108.426 84.9804 109.231C84.5299 110.031 83.9494 110.722 83.2387 111.306C82.5345 111.884 81.7287 112.331 80.8213 112.648C79.914 112.965 78.9242 113.124 77.8519 113.124C76.1642 113.124 74.6605 112.724 73.3407 111.925C72.021 111.119 70.9804 109.967 70.2191 108.47C69.464 106.973 69.0865 105.187 69.0865 103.112C69.0865 101.031 69.4672 99.2446 70.2286 97.7536C70.99 96.2562 72.0305 95.1078 73.3503 94.3083C74.67 93.5025 76.1705 93.0996 77.8519 93.0996C78.8862 93.0996 79.8506 93.2487 80.7452 93.5469C81.6462 93.8388 82.4551 94.2702 83.1721 94.8413C83.8891 95.406 84.4823 96.0976 84.9519 96.916C85.4214 97.7282 85.7386 98.6577 85.9036 99.7046Z" fill="#63755F"/>
<path d="M89.4226 112.858V93.3661H101.643V95.8977H92.3635V101.836H101.005V104.359H92.3635V110.326H101.757V112.858H89.4226Z" fill="#63755F"/>
<path d="M105.067 112.858V110.897L115.317 95.8977H104.981V93.3661H118.914V95.3267L108.664 110.326H119V112.858H105.067Z" fill="#63755F"/>
<path d="M12.2232 89.102H10.3959L42.0695 20.5774H53.0334L28.06 72.9607L23.7962 63.5195L12.2232 89.102Z" fill="#DFDDD0"/>
<path d="M14.3548 20.2732H4L20.7505 57.1242L46.0284 2H44.8102L25.6233 44.0284L14.3548 20.2732Z" fill="#63755F"/>
</g>
<defs>
<filter id="filter0_d_46_106" x="0" y="0" width="123" height="119.181" filterUnits="userSpaceOnUse" color-interpolation-filters="sRGB">
<feFlood flood-opacity="0" result="BackgroundImageFix"/>
<feColorMatrix in="SourceAlpha" type="matrix" values="0 0 0 0 0 0 0 0 0 0 0 0 0 0 0 0 0 0 127 0" result="hardAlpha"/>
<feOffset dy="2"/>
<feGaussianBlur stdDeviation="2"/>
<feComposite in2="hardAlpha" operator="out"/>
<feColorMatrix type="matrix" values="0 0 0 0 0 0 0 0 0 0 0 0 0 0 0 0 0 0 0.25 0"/>
<feBlend mode="normal" in2="BackgroundImageFix" result="effect1_dropShadow_46_106"/>
<feBlend mode="normal" in="SourceGraphic" in2="effect1_dropShadow_46_106" result="shape"/>
</filter>
</defs>
</svg>
