<svg width="331" height="70" viewBox="0 0 331 70" fill="none" xmlns="http://www.w3.org/2000/svg">
<path d="M146.437 35H153.432V56.7718C153.432 59.2163 152.856 61.3553 151.703 63.1887C150.562 65.0222 148.962 66.4518 146.905 67.4776C144.848 68.4925 142.452 69 139.716 69C136.97 69 134.568 68.4925 132.511 67.4776C130.453 66.4518 128.854 65.0222 127.712 63.1887C126.571 61.3553 126 59.2163 126 56.7718V35H132.995V56.1661C132.995 57.443 133.27 58.5779 133.819 59.571C134.379 60.5641 135.166 61.3444 136.178 61.9119C137.19 62.4794 138.37 62.7631 139.716 62.7631C141.073 62.7631 142.252 62.4794 143.254 61.9119C144.266 61.3444 145.047 60.5641 145.597 59.571C146.157 58.5779 146.437 57.443 146.437 56.1661V35Z" fill="url(#paint0_linear_48_156)"/>
<path d="M159.187 68.5253V35H172.241C174.74 35 176.872 35.4529 178.638 36.3587C180.415 37.2536 181.767 38.525 182.693 40.1728C183.63 41.8098 184.099 43.736 184.099 45.9514C184.099 48.1777 183.625 50.0929 182.677 51.6972C181.729 53.2905 180.356 54.5128 178.558 55.364C176.77 56.2152 174.605 56.6408 172.063 56.6408H163.323V50.9441H170.932C172.268 50.9441 173.377 50.7586 174.26 50.3876C175.143 50.0165 175.8 49.46 176.231 48.7179C176.673 47.9758 176.894 47.0536 176.894 45.9514C176.894 44.8382 176.673 43.8997 176.231 43.1358C175.8 42.3719 175.138 41.7935 174.244 41.4006C173.361 40.9968 172.246 40.7949 170.9 40.7949H166.183V68.5253H159.187ZM177.055 53.2687L185.278 68.5253H177.556L169.511 53.2687H177.055Z" fill="url(#paint1_linear_48_156)"/>
<path d="M199.572 35H208.199L217.31 57.5248H217.698L226.81 35H235.437V68.5253H228.651V46.7044H228.377L219.814 68.3616H215.194L206.632 46.6225H206.357V68.5253H199.572V35Z" fill="url(#paint2_linear_48_156)"/>
<path d="M246.903 68.5253H239.407L250.829 35H259.843L271.249 68.5253H263.753L255.465 42.6611H255.207L246.903 68.5253ZM246.434 55.3476H264.141V60.8806H246.434V55.3476Z" fill="url(#paint3_linear_48_156)"/>
<path d="M275.232 68.5253V35H288.285C290.784 35 292.916 35.4529 294.683 36.3587C296.46 37.2536 297.811 38.525 298.738 40.1728C299.675 41.8098 300.143 43.736 300.143 45.9514C300.143 48.1777 299.669 50.0929 298.721 51.6972C297.774 53.2905 296.4 54.5128 294.602 55.364C292.814 56.2152 290.649 56.6408 288.107 56.6408H279.367V50.9441H286.977C288.312 50.9441 289.421 50.7586 290.305 50.3876C291.188 50.0165 291.845 49.46 292.275 48.7179C292.717 47.9758 292.938 47.0536 292.938 45.9514C292.938 44.8382 292.717 43.8997 292.275 43.1358C291.845 42.3719 291.182 41.7935 290.288 41.4006C289.405 40.9968 288.29 40.7949 286.944 40.7949H282.227V68.5253H275.232ZM293.099 53.2687L301.322 68.5253H293.6L285.555 53.2687H293.099Z" fill="url(#paint4_linear_48_156)"/>
<path d="M303.827 40.844V35H331V40.844H320.871V68.5253H313.956V40.844H303.827Z" fill="url(#paint5_linear_48_156)"/>
<path d="M44.6668 17.4876C46.3853 18.5131 51.9376 17.4876 53.9206 17.4876C55.9036 17.4876 59.7373 63.8051 59.7373 63.8051H41.494C41.494 63.8051 42.9482 16.4621 44.6668 17.4876Z" fill="#835931"/>
<mask id="mask0_48_156" style="mask-type:alpha" maskUnits="userSpaceOnUse" x="41" y="17" width="19" height="47">
<path d="M44.6668 17.4876C46.3853 18.5131 51.9376 17.4876 53.9206 17.4876C55.9036 17.4876 59.7373 63.8051 59.7373 63.8051H41.494C41.494 63.8051 42.9482 16.4621 44.6668 17.4876Z" fill="#835931"/>
</mask>
<g mask="url(#mask0_48_156)">
<rect x="42.4194" y="29.7935" width="15.4671" height="2.39279" fill="#8D6B45"/>
<rect x="39.5111" y="42.27" width="20.2263" height="2.39279" fill="#8E6A46"/>
<rect x="39.5111" y="54.7468" width="21.5482" height="2.39279" fill="#8D6B48"/>
</g>
<path d="M98.9304 69.011H0C0 69.011 7.42524 67.0455 20.9654 58.0915C34.5055 49.1375 40.8388 50.2295 40.8388 50.2295L63.1145 60.4938C71.2552 54.7236 75.1259 52.6318 79.7121 52.6318C84.2983 52.6318 98.9304 69.011 98.9304 69.011Z" fill="#B69E86"/>
<path d="M32.6375 1.85635C40.4995 2.14907 40.8271 3.60346 43.9937 5.78736C47.1604 7.97125 49.2351 11.793 49.2351 11.793C49.2351 11.793 52.7293 4.25857 58.8442 1.31033C64.9591 -1.63791 75.005 1.31033 75.005 1.31033L65.8327 5.24134C65.8327 5.24134 70.4189 6.98845 66.7062 6.98845C62.9936 6.98845 59.4994 11.793 59.4994 11.793C59.4994 11.793 67.5798 13.2125 71.2924 15.0689C75.005 16.9252 77.1889 22.9309 77.1889 22.9309C77.1889 22.9309 73.6946 22.0574 72.4935 22.0574C71.2924 22.0574 69.3269 20.9654 65.8327 20.0918C62.3384 19.2183 58.8442 20.0918 58.8442 20.0918C58.8442 20.0918 65.8327 24.0228 65.8327 28.3906C65.8327 32.7584 62.3384 40.6204 62.3384 40.6204L60.5913 34.3964C60.5913 34.3964 59.4994 31.2297 58.2982 28.3906C57.097 25.5515 49.2351 19.2183 49.2351 19.2183L38.2064 31.2297L35.2582 40.6204C35.2582 40.6204 32.6375 32.4308 33.9478 28.3906C35.2582 24.3504 40.4995 19.2183 40.4995 19.2183C40.4995 19.2183 32.6375 21.5114 28.0513 25.9883C23.4651 30.4653 28.0513 22.9309 28.0513 22.9309L22.3732 25.9883C22.3732 25.9883 17.5686 30.7929 21.2812 22.9309C24.9939 15.0689 40.4995 11.793 40.4995 11.793L32.6375 8.18964L24.0111 5.24134L21.2812 4.47702C21.2812 4.47702 28.0892 1.68701 32.6375 1.85635Z" fill="#9BC734"/>
<path d="M26.6436 62.4595C28.7616 62.3747 30.7291 61.1799 32.3217 59.8388C33.7999 58.594 35.3188 61.3713 36.5196 62.2896C39.9811 64.9366 45.9184 64.7728 49.356 62.0227" stroke="#8D6B48" stroke-width="3" stroke-linecap="round"/>
<defs>
<linearGradient id="paint0_linear_48_156" x1="126" y1="52" x2="364" y2="52" gradientUnits="userSpaceOnUse">
<stop stop-color="#835931"/>
<stop offset="0.545054" stop-color="#A6896C"/>
<stop offset="1" stop-color="#B69E86"/>
</linearGradient>
<linearGradient id="paint1_linear_48_156" x1="126" y1="52" x2="364" y2="52" gradientUnits="userSpaceOnUse">
<stop stop-color="#835931"/>
<stop offset="0.545054" stop-color="#A6896C"/>
<stop offset="1" stop-color="#B69E86"/>
</linearGradient>
<linearGradient id="paint2_linear_48_156" x1="126" y1="52" x2="364" y2="52" gradientUnits="userSpaceOnUse">
<stop stop-color="#835931"/>
<stop offset="0.545054" stop-color="#A6896C"/>
<stop offset="1" stop-color="#B69E86"/>
</linearGradient>
<linearGradient id="paint3_linear_48_156" x1="126" y1="52" x2="364" y2="52" gradientUnits="userSpaceOnUse">
<stop stop-color="#835931"/>
<stop offset="0.545054" stop-color="#A6896C"/>
<stop offset="1" stop-color="#B69E86"/>
</linearGradient>
<linearGradient id="paint4_linear_48_156" x1="126" y1="52" x2="364" y2="52" gradientUnits="userSpaceOnUse">
<stop stop-color="#835931"/>
<stop offset="0.545054" stop-color="#A6896C"/>
<stop offset="1" stop-color="#B69E86"/>
</linearGradient>
<linearGradient id="paint5_linear_48_156" x1="126" y1="52" x2="364" y2="52" gradientUnits="userSpaceOnUse">
<stop stop-color="#835931"/>
<stop offset="0.545054" stop-color="#A6896C"/>
<stop offset="1" stop-color="#B69E86"/>
</linearGradient>
</defs>
</svg>
