<svg width="212" height="66" viewBox="0 0 212 66" fill="none" xmlns="http://www.w3.org/2000/svg">
<g filter="url(#filter0_d_46_106)">
<path d="M70.6323 24.3156C70.4753 22.9248 69.8277 21.8474 68.6895 21.0834C67.5513 20.3096 66.1187 19.9228 64.3918 19.9228C63.1555 19.9228 62.086 20.1186 61.1833 20.5104C60.2806 20.8924 59.579 21.4213 59.0786 22.0972C58.588 22.7632 58.3427 23.5223 58.3427 24.3744C58.3427 25.0894 58.5095 25.7065 58.8431 26.2256C59.1865 26.7447 59.633 27.1806 60.1824 27.5332C60.7417 27.876 61.3403 28.1649 61.978 28.4C62.6158 28.6253 63.2291 28.8114 63.8178 28.9583L66.7614 29.7223C67.723 29.9573 68.7091 30.2757 69.7198 30.6773C70.7304 31.0788 71.6675 31.6077 72.5309 32.264C73.3944 32.9202 74.091 33.7332 74.6209 34.7028C75.1606 35.6725 75.4304 36.8332 75.4304 38.1848C75.4304 39.8891 74.9888 41.4024 74.1058 42.7246C73.2325 44.0469 71.9618 45.09 70.2938 45.854C68.6355 46.618 66.629 47 64.2741 47C62.0173 47 60.0647 46.6425 58.4163 45.9275C56.7678 45.2125 55.4775 44.1987 54.5454 42.8863C53.6133 41.564 53.0981 39.9968 53 38.1848H57.5626C57.6509 39.272 58.0042 40.178 58.6223 40.9028C59.2503 41.6179 60.05 42.1517 61.0214 42.5043C62.0026 42.8471 63.077 43.0185 64.2446 43.0185C65.53 43.0185 66.6731 42.8177 67.6739 42.4161C68.6846 42.0047 69.4794 41.4367 70.0583 40.7118C70.6372 39.9773 70.9266 39.1202 70.9266 38.1408C70.9266 37.2494 70.6715 36.5197 70.1613 35.9517C69.6609 35.3836 68.979 34.9134 68.1155 34.5412C67.2618 34.169 66.2954 33.8409 65.216 33.5569L61.6542 32.5872C59.2405 31.931 57.3271 30.9662 55.9142 29.6929C54.5111 28.4196 53.8095 26.7349 53.8095 24.6389C53.8095 22.9052 54.2805 21.3919 55.2224 20.0991C56.1644 18.8062 57.44 17.8022 59.0491 17.0872C60.6583 16.3624 62.4736 16 64.4948 16C66.5357 16 68.3363 16.3575 69.8964 17.0725C71.4663 17.7875 72.7026 18.7719 73.6053 20.0256C74.5081 21.2695 74.979 22.6995 75.0183 24.3156H70.6323Z" fill="#63755F"/>
<path d="M80.865 46.5005V16.4114H91.6093C93.9543 16.4114 95.8971 16.8374 97.4376 17.6896C98.9781 18.5417 100.131 19.7073 100.896 21.1863C101.662 22.6555 102.044 24.3107 102.044 26.1521C102.044 28.0033 101.657 29.6684 100.882 31.1474C100.116 32.6166 98.9585 33.7821 97.4082 34.6441C95.8677 35.4962 93.9298 35.9223 91.5945 35.9223H84.2061V32.073H91.1824C92.6641 32.073 93.866 31.8183 94.7884 31.309C95.7107 30.7899 96.3877 30.0847 96.8195 29.1934C97.2512 28.3021 97.4671 27.2883 97.4671 26.1521C97.4671 25.016 97.2512 24.0071 96.8195 23.1256C96.3877 22.2441 95.7058 21.5536 94.7736 21.054C93.8513 20.5545 92.6346 20.3047 91.1236 20.3047H85.4129V46.5005H80.865Z" fill="#63755F"/>
<path d="M106.725 46.5005H101.897L112.744 16.4114H117.999L128.846 46.5005H124.019L115.497 21.8768H115.261L106.725 46.5005ZM107.534 34.7175H123.194V38.5374H107.534V34.7175Z" fill="#63755F"/>
<path d="M156.818 26.1962H152.226C152.049 25.2167 151.72 24.3548 151.24 23.6104C150.759 22.866 150.17 22.2343 149.473 21.7152C148.777 21.1961 147.997 20.8043 147.133 20.5398C146.28 20.2754 145.372 20.1431 144.41 20.1431C142.674 20.1431 141.118 20.579 139.745 21.4507C138.381 22.3224 137.302 23.6006 136.507 25.2853C135.722 26.97 135.329 29.0269 135.329 31.4559C135.329 33.9046 135.722 35.9712 136.507 37.6559C137.302 39.3406 138.386 40.6139 139.76 41.4758C141.133 42.3378 142.679 42.7687 144.396 42.7687C145.347 42.7687 146.25 42.6414 147.104 42.3867C147.967 42.1223 148.747 41.7354 149.444 41.2261C150.141 40.7167 150.729 40.0948 151.21 39.3602C151.701 38.6158 152.039 37.7637 152.226 36.8038L156.818 36.8185C156.572 38.2975 156.097 39.6589 155.39 40.9028C154.693 42.137 153.796 43.2046 152.697 44.1057C151.608 44.997 150.361 45.6875 148.958 46.1773C147.555 46.667 146.025 46.9118 144.366 46.9118C141.756 46.9118 139.431 46.2948 137.39 45.0607C135.349 43.8167 133.74 42.039 132.562 39.7275C131.395 37.416 130.811 34.6588 130.811 31.4559C130.811 28.2433 131.4 25.4861 132.577 23.1844C133.755 20.8728 135.364 19.1 137.405 17.8659C139.446 16.622 141.766 16 144.366 16C145.966 16 147.457 16.2302 148.841 16.6905C150.234 17.1411 151.485 17.8071 152.594 18.6886C153.702 19.5603 154.62 20.628 155.346 21.8915C156.072 23.1452 156.563 24.5801 156.818 26.1962Z" fill="#63755F"/>
<path d="M162.26 46.5005V16.4114H181.158V20.3194H166.808V29.4872H180.172V33.3806H166.808V42.5924H181.334V46.5005H162.26Z" fill="#63755F"/>
<path d="M186.453 46.5005V43.4739L202.304 20.3194H186.32V16.4114H207.868V19.4379L192.016 42.5924H208V46.5005H186.453Z" fill="#63755F"/>
<path d="M9.43443 59.5632H8.22681L29.1589 14.2773H36.4047L19.9005 48.8958L17.0827 42.6565L9.43443 59.5632Z" fill="#DFDDD0"/>
<path d="M10.8432 14.0762H4L15.0699 38.4299L31.7753 2H30.9702L18.2902 29.7753L10.8432 14.0762Z" fill="#63755F"/>
</g>
<defs>
<filter id="filter0_d_46_106" x="0" y="0" width="212" height="65.5632" filterUnits="userSpaceOnUse" color-interpolation-filters="sRGB">
<feFlood flood-opacity="0" result="BackgroundImageFix"/>
<feColorMatrix in="SourceAlpha" type="matrix" values="0 0 0 0 0 0 0 0 0 0 0 0 0 0 0 0 0 0 127 0" result="hardAlpha"/>
<feOffset dy="2"/>
<feGaussianBlur stdDeviation="2"/>
<feComposite in2="hardAlpha" operator="out"/>
<feColorMatrix type="matrix" values="0 0 0 0 0 0 0 0 0 0 0 0 0 0 0 0 0 0 0.25 0"/>
<feBlend mode="normal" in2="BackgroundImageFix" result="effect1_dropShadow_46_106"/>
<feBlend mode="normal" in="SourceGraphic" in2="effect1_dropShadow_46_106" result="shape"/>
</filter>
</defs>
</svg>
