<svg width="174" height="30" viewBox="0 0 174 30" fill="none" xmlns="http://www.w3.org/2000/svg">
<path d="M8.30971 4.92408C13.008 4.14305 21.0124 8.04821 21.0124 8.04821C21.0124 8.04821 14.6612 3.10162 8.30971 2.14707L8.30026 2.14565C7.95226 2.09319 5.50236 1.72391 3.08943 2.84132C0.653296 3.96948 -0.390604 7.1804 0.131271 10.4781C1.43651 15.7718 5.52556 20.3712 5.52556 20.3712C7.3954 22.3029 10.7016 24.6748 13.008 25.7517C15.3144 26.8285 19.2725 27.0533 21.0996 26.012C22.9267 24.9706 25.1014 22.3672 27.4507 18.1149C29.8 13.8626 32.9322 8.65566 32.9322 8.65566C32.9322 8.65566 37.1954 1.01888 42.7637 1.366C40.6758 0.324607 37.8915 -0.190251 35.9772 0.0643115C32.1047 0.867816 30.6257 3.21092 29.3206 5.29368C28.0155 7.37643 24.1447 14.9907 24.1447 14.9907C24.1447 14.9907 22.0566 19.5033 19.2723 20.8919C17.0104 22.0199 14.0078 20.8919 11.9639 19.1563C7.90269 15.7075 5.52556 11.4552 5.78675 9.08955C5.78675 6.57289 7.17882 5.11208 8.30971 4.92408Z" fill="url(#paint0_linear_48_140)"/>
<path d="M22.7953 29.8967C21.6816 29.7578 19.8952 28.8553 19.1411 28.4214C23.0563 28.7685 25.135 26.1658 26.6235 24.603C28.2766 22.8673 32.2208 16.0405 34.1929 12.4536C36.8031 8.4616 39.9874 -0.181839 49.2447 4.12253C58.502 8.42689 61.5124 16.6191 61.8604 20.1771C62.1214 22.6359 61.2862 27.6056 55.8571 27.8139C50.428 28.0222 43.9665 24.0823 41.4143 22.0863C43.4154 23.1277 52.7249 27.2064 55.5091 23.5616C57.6842 18.615 52.6379 12.4536 48.9837 10.1105C43.1729 6.3845 39.4132 11.2386 37.4121 15.838C35.411 20.4375 32.8879 25.2972 30.1037 27.8139C27.3196 30.3306 24.1874 30.0702 22.7953 29.8967Z" fill="url(#paint1_linear_48_140)"/>
<path d="M80.3823 29.2584C76.6515 29.2584 73.8207 28.1559 71.8899 25.9509C69.9755 23.746 69.0182 20.6081 69.0182 16.5374V12.7776C69.0182 8.68801 69.9755 5.54072 71.8899 3.33574C73.8207 1.11191 76.6515 0 80.3823 0C84.0966 0 86.911 1.11191 88.8255 3.33574C90.7399 5.54072 91.6972 8.68801 91.6972 12.7776V16.5374C91.6972 20.6081 90.7399 23.746 88.8255 25.9509C86.9274 28.1559 84.113 29.2584 80.3823 29.2584ZM80.3823 23.4633C82.0185 23.4633 83.2621 22.8979 84.113 21.7671C84.9802 20.6364 85.4138 19.0156 85.4138 16.9049V12.4101C85.4138 10.2616 84.9802 8.62205 84.113 7.49129C83.2621 6.34168 82.0185 5.76688 80.3823 5.76688C78.7296 5.76688 77.4697 6.34168 76.6024 7.49129C75.7516 8.62205 75.3261 10.2616 75.3261 12.4101V16.9049C75.3261 19.0156 75.7516 20.6364 76.6024 21.7671C77.4697 22.8979 78.7296 23.4633 80.3823 23.4633Z" fill="#1659A5"/>
<path d="M110.09 28.4952L110.311 21.7106L110.139 21.0887V12.4101L110.114 11.1663C110.114 9.35704 109.681 8.0284 108.813 7.18033C107.963 6.33226 106.563 5.90822 104.616 5.90822C102.964 5.90822 101.409 6.16264 99.9529 6.67149C98.5129 7.16148 97.1794 7.73629 95.9522 8.3959L96.4921 2.62902C97.2121 2.19556 98.0302 1.79037 98.9466 1.41345C99.8793 1.01768 100.918 0.697301 102.064 0.452303C103.209 0.207306 104.444 0.0848076 105.77 0.0848076C107.733 0.0848076 109.394 0.358074 110.752 0.904607C112.11 1.43229 113.19 2.19556 113.992 3.1944C114.81 4.19324 115.399 5.38996 115.759 6.78456C116.119 8.16032 116.299 9.68685 116.299 11.3641V28.4952H110.09ZM102.211 29.1453C99.822 29.1453 97.9975 28.4575 96.7376 27.0817C95.494 25.706 94.8722 23.746 94.8722 21.2018V20.4102C94.8722 17.7152 95.5922 15.727 97.0321 14.4455C98.472 13.1451 100.755 12.2499 103.88 11.7599L110.703 10.6857L111.071 15.3501L104.788 16.396C103.414 16.6033 102.432 16.9803 101.843 17.5268C101.27 18.0733 100.984 18.8743 100.984 19.9297V20.2123C100.984 21.2489 101.262 22.0592 101.818 22.6435C102.391 23.2089 103.283 23.4915 104.494 23.4915C105.574 23.4915 106.498 23.2937 107.267 22.8979C108.036 22.5021 108.666 21.9839 109.157 21.3431C109.664 20.6835 110.024 19.9485 110.237 19.1381L111.121 22.7283L110.224 24.3726C109.978 24.9616 109.518 25.845 108.764 26.5682C107.677 27.6118 107.382 27.7131 106.334 28.2973C105.287 28.8627 103.913 29.1453 102.211 29.1453Z" fill="#1659A5"/>
<path d="M129.634 29.1736C127.703 29.1736 125.985 28.9569 124.48 28.5234C122.991 28.1088 121.723 27.6377 120.676 27.11L120.111 20.8343C121.355 21.4939 122.721 22.0687 124.21 22.5587C125.715 23.0487 127.368 23.2937 129.168 23.2937C130.739 23.2937 131.876 23.0675 132.58 22.6152C133.283 22.1441 133.635 21.4468 133.635 20.5233V20.3537C133.635 19.7318 133.471 19.2229 133.144 18.8272C132.833 18.4314 132.277 18.0733 131.475 17.7529C130.673 17.4137 129.544 17.0556 128.088 16.6787C126.075 16.1322 124.48 15.5008 123.302 14.7847C122.14 14.0497 121.306 13.1545 120.798 12.0991C120.291 11.0249 120.037 9.74338 120.037 8.25455V8.00013C120.037 5.38053 120.847 3.41113 122.467 2.09191C124.087 0.753841 126.484 0.0848076 129.659 0.0848076C131.541 0.0848076 133.201 0.301536 134.641 0.734993C136.098 1.1496 137.308 1.64903 138.274 2.23325L138.838 8.00013C137.693 7.37821 136.408 6.85995 134.985 6.44533C133.561 6.01188 132.031 5.79515 130.395 5.79515C129.332 5.79515 128.489 5.8988 127.867 6.1061C127.262 6.29456 126.828 6.56783 126.566 6.92591C126.304 7.28398 126.173 7.71744 126.173 8.22628V8.36763C126.173 8.93301 126.313 9.423 126.591 9.83761C126.885 10.2522 127.417 10.6291 128.186 10.9684C128.955 11.2888 130.035 11.6374 131.426 12.0143C133.455 12.5043 135.083 13.0791 136.31 13.7387C137.538 14.3983 138.429 15.2464 138.986 16.2829C139.542 17.3006 139.82 18.6387 139.82 20.2971V20.6364C139.82 23.501 138.977 25.64 137.292 27.0534C135.607 28.4669 133.054 29.1736 129.634 29.1736Z" fill="#1659A5"/>
<path d="M143.848 28.4952V0.763262H150.131V28.4952H143.848Z" fill="#1659A5"/>
<path d="M163.814 29.1736C161.883 29.1736 160.165 28.9569 158.66 28.5234C157.171 28.1088 155.903 27.6377 154.855 27.11L154.291 20.8343C155.534 21.4939 156.901 22.0687 158.39 22.5587C159.895 23.0487 161.548 23.2937 163.348 23.2937C164.919 23.2937 166.056 23.0675 166.759 22.6152C167.463 22.1441 167.815 21.4468 167.815 20.5233V20.3537C167.815 19.7318 167.651 19.2229 167.324 18.8272C167.013 18.4314 166.457 18.0733 165.655 17.7529C164.853 17.4137 163.724 17.0556 162.268 16.6787C160.255 16.1322 158.66 15.5008 157.482 14.7847C156.32 14.0497 155.485 13.1545 154.978 12.0991C154.471 11.0249 154.217 9.74338 154.217 8.25455V8.00013C154.217 5.38053 155.027 3.41113 156.647 2.09191C158.267 0.753841 160.664 0.0848076 163.839 0.0848076C165.72 0.0848076 167.381 0.301536 168.821 0.734993C170.277 1.1496 171.488 1.64903 172.454 2.23325L173.018 8.00013C171.873 7.37821 170.588 6.85995 169.165 6.44533C167.741 6.01188 166.211 5.79515 164.575 5.79515C163.511 5.79515 162.669 5.8988 162.047 6.1061C161.441 6.29456 161.008 6.56783 160.746 6.92591C160.484 7.28398 160.353 7.71744 160.353 8.22628V8.36763C160.353 8.93301 160.492 9.423 160.771 9.83761C161.065 10.2522 161.597 10.6291 162.366 10.9684C163.135 11.2888 164.215 11.6374 165.606 12.0143C167.635 12.5043 169.263 13.0791 170.49 13.7387C171.717 14.3983 172.609 15.2464 173.165 16.2829C173.722 17.3006 174 18.6387 174 20.2971V20.6364C174 23.501 173.157 25.64 171.472 27.0534C169.787 28.4669 167.234 29.1736 163.814 29.1736Z" fill="#1659A5"/>
<defs>
<linearGradient id="paint0_linear_48_140" x1="152.933" y1="2.14625" x2="30.5751" y2="45.8567" gradientUnits="userSpaceOnUse">
<stop offset="0.0678097" stop-color="#07A1D5"/>
<stop offset="1" stop-color="#0371B8"/>
</linearGradient>
<linearGradient id="paint1_linear_48_140" x1="164.27" y1="21.5595" x2="51.0092" y2="55.2738" gradientUnits="userSpaceOnUse">
<stop stop-color="#9BC543"/>
<stop offset="1" stop-color="#00AED6"/>
</linearGradient>
</defs>
</svg>
