<svg width="667" height="217" viewBox="0 0 667 217" fill="none" xmlns="http://www.w3.org/2000/svg">
<path d="M216.025 42.7148V168.138H193.183V42.7148H216.025Z" fill="#55AEFF"/>
<path d="M309.286 77.1939C308.711 71.8455 306.29 67.681 302.021 64.7006C297.793 61.7202 292.293 60.2299 285.52 60.2299C280.759 60.2299 276.675 60.9444 273.268 62.3734C269.861 63.8024 267.255 65.7417 265.449 68.1914C263.643 70.6411 262.72 73.4378 262.678 76.5815C262.678 79.1945 263.274 81.4605 264.464 83.3794C265.695 85.2983 267.358 86.9314 269.451 88.2787C271.544 89.5852 273.863 90.6876 276.408 91.5858C278.953 92.484 281.518 93.2393 284.104 93.8517L295.926 96.7913C300.687 97.8937 305.263 99.3839 309.655 101.262C314.088 103.14 318.049 105.508 321.538 108.366C325.068 111.224 327.859 114.674 329.911 118.716C331.964 122.758 332.99 127.494 332.99 132.924C332.99 140.273 331.102 146.744 327.326 152.338C323.549 157.89 318.09 162.238 310.948 165.382C303.847 168.485 295.248 170.037 285.151 170.037C275.341 170.037 266.824 168.526 259.6 165.505C252.417 162.483 246.794 158.074 242.73 152.276C238.708 146.479 236.532 139.416 236.204 131.087H258.677C259.005 135.455 260.359 139.089 262.74 141.988C265.121 144.887 268.22 147.05 272.037 148.479C275.895 149.908 280.205 150.623 284.966 150.623C289.933 150.623 294.284 149.888 298.019 148.418C301.795 146.908 304.75 144.825 306.885 142.172C309.019 139.477 310.107 136.333 310.148 132.74C310.107 129.474 309.142 126.779 307.254 124.656C305.366 122.493 302.719 120.696 299.312 119.267C295.946 117.797 292.006 116.491 287.491 115.348L273.145 111.673C262.761 109.019 254.551 104.998 248.518 99.6085C242.525 94.1784 239.529 86.9722 239.529 77.9901C239.529 70.6002 241.54 64.129 245.562 58.5764C249.626 53.0238 255.147 48.7165 262.124 45.6544C269.102 42.5515 277.003 41 285.828 41C294.776 41 302.616 42.5515 309.348 45.6544C316.12 48.7165 321.436 52.983 325.294 58.4539C329.152 63.884 331.143 70.1307 331.266 77.1939H309.286Z" fill="#55AEFF"/>
<path d="M353.354 168.138V42.7148H376.196V100.343H377.735L426.928 42.7148H454.819L406.057 98.996L455.25 168.138H427.79L390.172 114.368L376.196 130.781V168.138H353.354Z" fill="#55AEFF"/>
<path d="M470.688 168.138V42.7148H552.698V61.761H493.53V95.8115H548.449V114.858H493.53V149.092H553.19V168.138H470.688Z" fill="#55AEFF"/>
<path d="M573.662 168.138V153.991L638.309 61.761H573.292V42.7148H666.631V56.8616L602.045 149.092H667V168.138H573.662Z" fill="#55AEFF"/>
<path d="M55.3421 44.6869H0L12.1061 61.6027H45.2537L69.7541 97.4415L79.5542 82.5326L55.3421 44.6869Z" fill="url(#paint0_linear_47_12)"/>
<path d="M38.0477 73.9313H19.3121L70.3305 149.909L131.149 61.8895H164.873L172.944 44.4001H121.349L70.3305 118.658L38.0477 73.9313Z" fill="#55AEFF"/>
<path d="M87.9132 176L77.8248 159.944L134.608 77.0851H154.497L87.9132 176Z" fill="url(#paint1_linear_47_12)"/>
<defs>
<linearGradient id="paint0_linear_47_12" x1="79.5542" y1="77.6586" x2="3.5504" y2="50.4522" gradientUnits="userSpaceOnUse">
<stop stop-color="#55AEFF"/>
<stop offset="1" stop-color="#2857CE"/>
</linearGradient>
<linearGradient id="paint1_linear_47_12" x1="81.2837" y1="170.553" x2="146.533" y2="76.7589" gradientUnits="userSpaceOnUse">
<stop stop-color="#1160A9"/>
<stop offset="1" stop-color="#55AEFF"/>
</linearGradient>
</defs>
</svg>
