<svg width="667" height="135" viewBox="0 0 667 135" fill="none" xmlns="http://www.w3.org/2000/svg">
<path d="M216.025 1.71477V127.138H193.183V1.71477H216.025Z" fill="#009ABC"/>
<path d="M309.286 36.1939C308.711 30.8455 306.29 26.681 302.021 23.7006C297.793 20.7202 292.293 19.2299 285.52 19.2299C280.759 19.2299 276.675 19.9444 273.268 21.3734C269.861 22.8024 267.255 24.7417 265.449 27.1914C263.643 29.6411 262.72 32.4378 262.678 35.5815C262.678 38.1945 263.274 40.4605 264.464 42.3794C265.695 44.2983 267.358 45.9314 269.451 47.2787C271.544 48.5852 273.863 49.6876 276.408 50.5858C278.953 51.484 281.518 52.2393 284.104 52.8517L295.926 55.7913C300.687 56.8937 305.263 58.3839 309.655 60.262C314.088 62.1401 318.049 64.5081 321.538 67.3661C325.068 70.224 327.859 73.674 329.911 77.7159C331.964 81.7579 332.99 86.4939 332.99 91.924C332.99 99.2731 331.102 105.744 327.326 111.338C323.549 116.89 318.09 121.238 310.948 124.382C303.847 127.485 295.248 129.037 285.151 129.037C275.341 129.037 266.824 127.526 259.6 124.505C252.417 121.483 246.794 117.074 242.73 111.276C238.708 105.479 236.532 98.4157 236.204 90.0868H258.677C259.005 94.4554 260.359 98.0891 262.74 100.988C265.121 103.887 268.22 106.05 272.037 107.479C275.895 108.908 280.205 109.623 284.966 109.623C289.933 109.623 294.284 108.888 298.019 107.418C301.795 105.908 304.75 103.825 306.885 101.172C309.019 98.4769 310.107 95.3332 310.148 91.7403C310.107 88.4741 309.142 85.7794 307.254 83.6564C305.366 81.4925 302.719 79.6961 299.312 78.2671C295.946 76.7973 292.006 75.4908 287.491 74.3476L273.145 70.6731C262.761 68.0193 254.551 63.9978 248.518 58.6085C242.525 53.1784 239.529 45.9722 239.529 36.9901C239.529 29.6002 241.54 23.129 245.562 17.5764C249.626 12.0238 255.147 7.71648 262.124 4.65438C269.102 1.55146 277.003 0 285.828 0C294.776 0 302.616 1.55146 309.348 4.65438C316.12 7.71648 321.436 11.983 325.294 17.4539C329.152 22.884 331.143 29.1307 331.266 36.1939H309.286Z" fill="#009ABC"/>
<path d="M353.354 127.138V1.71477H376.196V59.3434H377.735L426.928 1.71477H454.819L406.057 57.996L455.25 127.138H427.79L390.172 73.3678L376.196 89.7806V127.138H353.354Z" fill="#009ABC"/>
<path d="M470.688 127.138V1.71477H552.698V20.761H493.53V54.8115H548.449V73.8577H493.53V108.092H553.19V127.138H470.688Z" fill="#009ABC"/>
<path d="M573.662 127.138V112.991L638.309 20.761H573.292V1.71477H666.631V15.8616L602.045 108.092H667V127.138H573.662Z" fill="#009ABC"/>
<path d="M55.3421 3.68686H0L12.1061 20.6027H45.2537L69.7541 56.4415L79.5542 41.5326L55.3421 3.68686Z" fill="url(#paint0_linear_47_22)"/>
<path d="M38.0477 32.9313H19.3121L70.3305 108.909L131.149 20.8895H164.873L172.944 3.40015H121.349L70.3305 77.658L38.0477 32.9313Z" fill="#009ABC"/>
<path d="M87.9132 135L77.8248 118.944L134.608 36.0851H154.497L87.9132 135Z" fill="url(#paint1_linear_47_22)"/>
<defs>
<linearGradient id="paint0_linear_47_22" x1="79.5542" y1="36.6586" x2="3.5504" y2="9.45218" gradientUnits="userSpaceOnUse">
<stop stop-color="#00FFF2"/>
<stop offset="1" stop-color="#1160A9"/>
</linearGradient>
<linearGradient id="paint1_linear_47_22" x1="81.2837" y1="129.553" x2="146.533" y2="35.7589" gradientUnits="userSpaceOnUse">
<stop stop-color="#1265AC"/>
<stop offset="1" stop-color="#00EEFF"/>
</linearGradient>
</defs>
</svg>
